<?xml version="1.0" encoding="UTF-8"?>
<svg width="256px" height="256px" viewBox="0 0 256 256" version="1.1" xmlns="http://www.w3.org/2000/svg" xmlns:xlink="http://www.w3.org/1999/xlink">
    <!-- Generator: Sketch 43.1 (39012) - http://www.bohemiancoding.com/sketch -->
    <title>ic_搜索文件</title>
    <desc>Created with Sketch.</desc>
    <defs></defs>
    <g id="Symbols" stroke="none" stroke-width="1" fill="none" fill-rule="evenodd">
        <g id="ic_搜索文件">
            <g>
                <rect id="Rectangle-9" fill-opacity="0" fill="#FF0000" x="0" y="0" width="256" height="256"></rect>
                <g id="Group" transform="translate(52.000000, 37.000000)">
                    <path d="M134,44.8337608 L134,102.661681 C131.796896,101.264326 129.458027,100.061802 127.007629,99.0783459 L127.007629,45 L131.99798,45 C132.680103,45 133.348939,44.9430907 134,44.8337608 Z M89.1662354,0 L15.9972252,0 C7.157048,0 -5.68434189e-14,7.16685753 -5.68434189e-14,16.0076243 L-5.68434189e-14,155.992376 C-5.68434189e-14,164.828355 7.16220169,172 15.9972252,172 L83.4302747,172 C81.2745494,170.197075 79.298147,168.186859 77.5317167,166 L19.0077053,166 C12.380246,166 7.00762867,160.630762 7.00762867,154.006731 L7.00762867,17.9932687 C7.00762867,11.3695693 12.3773081,6 19.0077053,6 L89,6 L89,2.00201974 C89,1.31989283 89.0569082,0.651056835 89.1662354,-5.55111512e-16 Z" id="Combined-Shape" fill="#D8D8D8"></path>
                    <path d="M96,3.77370744 C91.7742091,6.65569934 89,11.5085949 89,17.0094779 L89,28.9905221 C89,37.8327127 96.1676874,45 105.009478,45 L116.990522,45 C122.491578,45 127.344354,42.2257129 130.226279,38 L108.00202,38 C101.373487,38 96,32.6262271 96,25.9979803 L96,3.77370744 Z" id="Combined-Shape" fill="#D8D8D8"></path>
                    <path d="M92.5,3.53344985 C94.3284162,3.73699687 96.8308834,4.83945436 98.0028714,6.01144241 L127.988558,35.9971286 C129.161177,37.1697478 130.263434,39.669475 130.466658,41.5 L104.992022,41.5 C98.0911146,41.5 92.5,35.9100023 92.5,29.0079778 L92.5,3.53344985 Z" id="Rectangle" stroke="#D8D8D8" stroke-width="7"></path>
                    <rect id="Rectangle-11" fill="#D8D8D8" x="16" y="49" width="72" height="7" rx="3.5"></rect>
                    <rect id="Rectangle-11" fill="#D8D8D8" x="16" y="69" width="72" height="7" rx="3.5"></rect>
                    <rect id="Rectangle-11" fill="#D8D8D8" x="16" y="99" width="49" height="7" rx="3.5"></rect>
                    <rect id="Rectangle-11" fill="#D8D8D8" x="16" y="119" width="49" height="7" rx="3.5"></rect>
                    <path d="M111,175 C91.117749,175 75,158.882251 75,139 C75,119.117749 91.117749,103 111,103 C130.882251,103 147,119.117749 147,139 C147,158.882251 130.882251,175 111,175 Z M111,165 C125.359403,165 137,153.359403 137,139 C137,124.640597 125.359403,113 111,113 C96.6405965,113 85,124.640597 85,139 C85,153.359403 96.6405965,165 111,165 Z" id="Combined-Shape" fill="#D8D8D8"></path>
                    <rect id="Rectangle-10" fill="#D8D8D8" transform="translate(139.435029, 167.435029) scale(-1, 1) rotate(45.000000) translate(-139.435029, -167.435029) " x="134.435029" y="153.435029" width="10" height="28" rx="5"></rect>
                </g>
            </g>
        </g>
    </g>
</svg>