<?xml version="1.0" standalone="no"?><!DOCTYPE svg PUBLIC "-//W3C//DTD SVG 1.1//EN" "http://www.w3.org/Graphics/SVG/1.1/DTD/svg11.dtd"><svg t="1493543848649" class="icon" style="" viewBox="0 0 1027 1024" version="1.1" xmlns="http://www.w3.org/2000/svg" p-id="2626" xmlns:xlink="http://www.w3.org/1999/xlink" width="16.046875" height="16"><defs><style type="text/css"></style></defs><path d="M1026.430129 0.319579c-4.96624 134.669441-35.140437 259.172589-91.022889 377.443432-35.830646 75.8342-82.739356 144.136336-139.308955 206.226589-9.793621 10.750317-14.689411 28.44561-16.462922 43.56487-5.77693 49.263182-6.473265 99.242098-14.473976 148.069305-3.599095 21.96724-17.158237 43.874239-30.879721 62.32815-47.723484 64.184364-105.939988 117.956369-171.778404 163.357033-8.817527 6.080173-18.310968 11.476262-28.107653 15.788028-35.643799 15.688989-65.267666 4.63543-71.97985-33.166805-6.57843-37.051786-3.917653-75.757623-5.115309-113.742621-0.398198-12.624909 0.573813-25.328437-0.405345-37.893106-2.524982-32.386746-14.631213-45.190334-46.120483-49.822701-5.793266-0.852551-11.746832-0.549309-17.584002-1.17111-86.830582-9.25146-139.801087-60.108453-148.220415-147.069726-6.687679-69.068923-28.469094-66.711388-82.025663-67.105502-27.382729-0.202162-54.790983 3.054891-82.173711 2.855792-14.453556-0.105165-29.44723-2.511709-43.202408-6.956208-32.197858-10.406233-44.370455-36.128784-30.766388-67.216793 8.157948-18.639736 18.52334-37.274368 31.780261-52.537592 36.554549-42.089497 74.450718-83.080377 113.106525-123.264651 60.469894-62.860102 137.804993-79.531312 220.863928-73.830959 34.611548 2.374892 59.67452-6.536568 86.009682-30.041464C609.819358 81.130229 791.049342 17.703461 990.50657 0.436996 1001.020011-0.472732 1011.68252 0.319579 1026.430129 0.319579zM680.262574 228.581817c-66.937033-1.45189-122.526454 52.307863-123.040026 118.989641-0.502342 65.293192 52.811225 119.623694 118.633305 120.894864 64.850069 1.252791 120.242432-52.676451 121.207296-118.005378C798.041285 284.331537 745.980509 230.00716 680.262574 228.581817z" p-id="2627"></path><path d="M363.866933 869.742397c-5.073447 10.619626-6.750983 19.198234-11.919385 24.090961-25.468317 24.108318-50.837594 48.533153-78.298941 70.244116-17.396134 13.753136-31.31876 10.795242-37.127341-15.222383-8.443833-37.821634-21.662976-45.117842-59.166052-34.265423-21.47715 6.214947-41.504453 17.372651-62.911153 23.931682-9.116685 2.79351-21.720153 2.31261-29.510534-2.223781-3.68486-2.146184-1.749007-17.991389 1.078197-26.485252 7.38912-22.203095 18.465142-43.270817 24.779128-65.716915 9.483231-33.711009 0.574834-47.181322-32.497016-55.918188-28.86627-7.625996-33.889687-16.131091-16.254634-39.663554 19.782258-26.397444 42.350878-51.234771 66.631749-73.57162 20.361176-18.730607 42.570397-12.217522 54.452004 13.128272 5.311345 11.330256 7.381973 24.204294 10.720707 36.432027 15.551152 56.949418 51.495131 92.864809 109.205209 106.841548 12.293078 2.977294 25.526515 5.37669 35.935811 11.873439C348.846711 849.373053 355.570126 860.557303 363.866933 869.742397z" p-id="2628"></path></svg>